<svg fill="#fff" id="_x31__x2C_5" enable-background="new 0 0 24 24" height="512" viewBox="0 0 24 24" width="512" xmlns="http://www.w3.org/2000/svg"><path d="m21.25 22h-1.81c-.414 0-.75-.336-.75-.75s.336-.75.75-.75h1.81c.689 0 1.25-.561 1.25-1.25v-16.5c0-.689-.561-1.25-1.25-1.25h-18.5c-.689 0-1.25.561-1.25 1.25v16.5c0 .689.561 1.25 1.25 1.25h1.81c.414 0 .75.336.75.75s-.336.75-.75.75h-1.81c-1.517 0-2.75-1.233-2.75-2.75v-16.5c0-1.517 1.233-2.75 2.75-2.75h18.5c1.517 0 2.75 1.233 2.75 2.75v16.5c0 1.517-1.233 2.75-2.75 2.75z"/><path d="m23.25 5h-22.5c-.414 0-.75-.336-.75-.75s.336-.75.75-.75h22.5c.414 0 .75.336.75.75s-.336.75-.75.75z"/><path d="m12 24c-.1 0-.199-.02-.293-.06-.233-.099-5.707-2.482-5.707-7.386v-4.018c0-.321.204-.606.509-.71l5.25-1.786c.156-.054.326-.054.482 0l5.25 1.786c.305.103.509.388.509.71v4.018c0 4.904-5.474 7.288-5.707 7.387-.094.039-.193.059-.293.059zm-4.5-10.927v3.481c0 3.348 3.455 5.341 4.499 5.866 1.042-.528 4.501-2.531 4.501-5.866v-3.481l-4.5-1.531z"/><path d="m11.75 19.5c-.198 0-.39-.079-.53-.22l-2-2c-.293-.293-.293-.768 0-1.061s.768-.293 1.061 0l1.389 1.389 2.48-3.308c.246-.331.717-.399 1.05-.15.331.249.398.719.149 1.05l-3 4c-.13.174-.329.283-.547.298-.017.002-.034.002-.052.002z"/></svg>